; NON-PLATED HOLES START AT T1
; THROUGH (PLATED) HOLES START AT T100
M48
INCH
T100C0.039370
T101C0.028000
T102C0.038000
%
T100
X019191Y018231
X007191Y012231
X027191Y012231
X003191Y018231
X026191Y012231
X015191Y018231
X021191Y012231
X021191Y018231
X014191Y018231
X008191Y018231
X024191Y018231
X023191Y012231
X018191Y018231
X012191Y012231
X011191Y012231
X022191Y012231
X010191Y018231
X022191Y018231
X027191Y018231
X009191Y012231
X023191Y018231
X030191Y018231
X009191Y018231
X006191Y012231
X026191Y018231
X010191Y012231
X005191Y018231
X024191Y012231
X006191Y018231
X025191Y018231
X013191Y018231
X012191Y018231
X029191Y018231
X004191Y018231
X020191Y018231
X007191Y018231
X008191Y012231
X028191Y018231
X011191Y018231
X025191Y012231
T101
X013225Y010231
X014221Y001293
X018204Y010231
X024178Y001293
X012229Y001293
X013225Y001293
X020195Y001293
X020195Y010231
X016212Y010231
X010238Y010231
X015216Y001293
X017208Y001293
X016212Y001293
X010238Y001293
X022186Y010231
X022186Y001293
X019199Y001293
X011233Y010231
X014221Y010231
X011233Y001293
X015216Y010231
X023182Y001293
X019199Y010231
X018204Y001293
X021191Y010231
X012229Y010231
X024178Y010231
X017208Y010231
X023182Y010231
X021191Y001293
T102
X028191Y021231
X004191Y021231
X026191Y021231
X029191Y021231
X005191Y021231
X018191Y021231
X025191Y021231
X019191Y021231
X003191Y021231
X015191Y021231
X023191Y021231
X017191Y021231
X021191Y021231
X020191Y021231
X009191Y021231
X027191Y021231
X008191Y021231
X014191Y021231
X022191Y021231
X006191Y021231
X007191Y021231
X011191Y021231
X012191Y021231
X013191Y021231
T00
M30
